<svg xmlns="http://www.w3.org/2000/svg" viewBox="0 0 160 160">
<defs><linearGradient id="b" x1="0" y1="0" x2="1" y2="1"><stop stop-color="#f3faff"/><stop offset="1" stop-color="#d0e9fa"/></linearGradient><linearGradient id="c" x1="0" y1="0" x2="1" y2="1"><stop stop-color="#1a6b8f"/><stop offset="1" stop-color="#0b4560"/></linearGradient><clipPath id="k"><circle cx="80" cy="80" r="76"/></clipPath></defs>
<circle cx="80" cy="80" r="76" fill="url(#b)"/>
<g clip-path="url(#k)"><circle cx="80" cy="27" r="13" fill="#2a1d24"/><path d="M70 24c4-4 16-4 20 0" fill="none" stroke="#6a4a5a" stroke-width="2" stroke-linecap="round" opacity=".6"/><ellipse cx="80" cy="66" rx="29" ry="32" fill="#2a1d24"/><path d="M26 160c1-32 22-52 54-52s53 20 54 52z" fill="url(#c)"/><rect x="71" y="90" width="18" height="22" rx="8" fill="#db9c78"/><path d="M64 108l16 34 16-34z" fill="#fff"/><path d="M62 108l-8 8 22 30 4-8z" fill="#0b4560"/><path d="M98 108l8 8-22 30-4-8z" fill="#0b4560"/><circle cx="100" cy="132" r="3.2" fill="#f5b301"/><ellipse cx="80" cy="68" rx="24" ry="28" fill="#efb894"/><ellipse cx="57" cy="72" rx="3.4" ry="5" fill="#efb894"/><ellipse cx="103" cy="72" rx="3.4" ry="5" fill="#efb894"/><path d="M55 68c-3-24 9-37 26-37 17 0 27 12 24 36-3-10-8-17-15-21-11 9-25 16-35 22z" fill="#2a1d24"/><path d="M66 42c8-5 20-5 28 1" fill="none" stroke="#6a4a5a" stroke-width="2" stroke-linecap="round" opacity=".55"/><ellipse cx="70" cy="70" rx="2.6" ry="3.2" fill="#2b1b18"/><ellipse cx="90" cy="70" rx="2.6" ry="3.2" fill="#2b1b18"/><circle cx="70.8" cy="69" r=".9" fill="#fff"/><circle cx="90.8" cy="69" r=".9" fill="#fff"/><path d="M64 63c3-2.4 7-2.4 10-.4M86 62.6c3-2 7-2 10 .4" fill="none" stroke="#2a1d24" stroke-width="2" stroke-linecap="round"/><ellipse cx="64" cy="79" rx="4.5" ry="2.6" fill="#f08a80" opacity=".35"/><ellipse cx="96" cy="79" rx="4.5" ry="2.6" fill="#f08a80" opacity=".35"/><path d="M80 72c-1 4-2 6 1 7" fill="none" stroke="#db9c78" stroke-width="1.6" stroke-linecap="round"/><path d="M73 84c4 4.6 10 4.6 14 0" fill="none" stroke="#b5544f" stroke-width="2.4" stroke-linecap="round"/><g fill="none" stroke="#3a2c2a" stroke-width="1.8"><rect x="61" y="63.5" width="17" height="13" rx="6"/><rect x="82" y="63.5" width="17" height="13" rx="6"/><path d="M78 69.5h4"/></g></g>
</svg>
